<mxfile host="app.diagrams.net" modified="2023-09-12T04:03:04.973Z" agent="Mozilla/5.0 (Windows NT 10.0; Win64; x64) AppleWebKit/537.36 (KHTML, like Gecko) Chrome/102.0.0.0 Safari/537.36" version="21.6.6" etag="EyP5VKvx0eWGboWBAKlU" type="github">
  <diagram name="第 1 页" id="D1K56hvIOqRHzIkfI8qQ">
    <mxGraphModel>
      <root>
        <mxCell id="0" />
        <mxCell id="1" parent="0" />
      </root>
    </mxGraphModel>
  </diagram>
</mxfile>
